<?xml version="1.0" encoding="utf-8"?>
<!-- Generator: Adobe Illustrator 24.1.0, SVG Export Plug-In . SVG Version: 6.00 Build 0)  -->
<svg version="1.1" id="Layer_1" xmlns="http://www.w3.org/2000/svg" xmlns:xlink="http://www.w3.org/1999/xlink" x="0px" y="0px"
	 viewBox="0 0 24 24" style="enable-background:new 0 0 24 24;" xml:space="preserve">
<style type="text/css">
	.st0{fill:#B2B1FF;}
	.st1{fill:#6563FF;}
	.st2{fill:#D8D8FF;}
</style>
<path class="st0" d="M19,2H5C3.34515,2.00483,2.00483,3.34515,2,5v8.86l3.88-3.88c1.18747-1.13,3.05253-1.13,4.24,0l2.87139,2.887
	l0.88752-0.88751c1.17344-1.16662,3.06874-1.16662,4.24218,0L22,15.8584V5C21.99517,3.34515,20.65485,2.00483,19,2z"/>
<path class="st1" d="M10.12,9.98c-1.18747-1.13-3.05253-1.13-4.24,0L2,13.86V19c0.00484,1.65484,1.34516,2.99516,3,3h14
	c0.81512-0.00034,1.59497-0.3325,2.16-0.92L10.12,9.98z"/>
<path class="st2" d="M22,15.8584l-3.87891-3.87891c-1.17345-1.1666-3.06873-1.1666-4.24218,0L12.99139,12.867l8.16425,8.20856
	C21.69776,20.5208,22.00089,19.77567,22,19V15.8584z"/>
</svg>
